<?xml version="1.0" standalone="no"?><!DOCTYPE svg PUBLIC "-//W3C//DTD SVG 1.1//EN" "http://www.w3.org/Graphics/SVG/1.1/DTD/svg11.dtd"><svg t="1611247105473" class="icon" viewBox="0 0 1024 1024" version="1.1" xmlns="http://www.w3.org/2000/svg" p-id="13685" xmlns:xlink="http://www.w3.org/1999/xlink" width="200" height="200"><defs><style type="text/css"></style></defs><path d="M908.6976 576.6656V209.1008c0-20.224-15.5136-37.376-36.5056-40.2432-67.8912-9.216-217.5488-37.888-336.384-120.3712-14.7968-10.24-34.7136-10.3936-49.6128-0.2048-48.384 33.0752-164.7104 101.2736-322.048 119.1424-21.4528 2.4576-37.6832 19.712-37.6832 40.3456v366.6432s-32.9728 249.856 395.6224 394.8544c398.2848-140.544 386.6112-348.0064 386.6112-392.6016z m-193.6896-180.9408l-189.0816 237.3632c-8.1408 10.24-20.2752 16.384-33.3312 16.9472-0.6144 0.0512-1.2288 0.0512-1.8944 0.0512-12.3904 0-24.2176-5.12-32.768-14.1312L327.3216 497.3056a25.63072 25.63072 0 0 1 1.0752-36.1984c10.2912-9.6768 26.5216-9.216 36.1984 1.0752l125.696 133.4272 184.6784-231.8336a25.63072 25.63072 0 0 1 35.9936-4.096c11.008 8.8576 12.8512 24.9856 4.0448 36.0448z" fill="#50595B" p-id="13686"></path></svg>